<svg width="371" height="312" viewBox="0 0 371 312" fill="none" xmlns="http://www.w3.org/2000/svg">
<g clip-path="url(#clip0_6_852)">
<path d="M330.9 157.845C328.4 162.745 325.3 167.345 321.5 171.345C311.5 182.045 297.4 189.045 282.7 189.945C262.6 191.345 242.1 181.445 230.7 164.845C219.3 148.245 217.3 125.645 225.7 107.245C242.6 70.4454 291.3 63.2454 319 89.5454C322.2 92.4454 325.1 95.9454 327.7 99.8454C338.7 116.945 340 139.745 330.9 157.845Z" fill="white"/>
<path d="M314.2 170.245C305.5 178.145 294.2 183.345 282.4 184.145C264.5 185.345 246.3 176.545 236.1 161.745C225.9 146.945 224.2 126.745 231.7 110.445C236.1 100.845 242.9 93.5454 250.9 88.5454C246.2 92.8454 242.3 98.2454 239.4 104.545C231.9 120.845 233.6 141.045 243.8 155.845C254 170.645 272.2 179.445 290.1 178.245C298.6 177.645 306.9 174.845 314.2 170.245Z" fill="#E6E6E6"/>
<path d="M278.9 192.445C259.3 192.445 239.9 182.445 228.7 166.245C216.8 148.945 214.8 125.545 223.5 106.345C231.6 88.6454 247.4 76.4454 266.8 72.6454C286.4 68.8454 306.5 74.5454 320.5 87.8454C323.8 90.8454 326.8 94.4454 329.5 98.6454C341 116.345 342.3 139.945 332.9 158.845C330.3 164.045 327 168.745 323.1 172.845C312.5 184.145 297.8 191.145 282.8 192.245C281.5 192.445 280.2 192.445 278.9 192.445ZM278.8 76.2454C275.1 76.2454 271.4 76.5454 267.7 77.3454C249.8 80.7454 235.2 92.0454 227.7 108.345C219.6 125.945 221.5 147.645 232.5 163.545C243.5 179.545 263.1 188.945 282.4 187.645C296.3 186.745 309.9 180.145 319.7 169.745C323.3 165.945 326.4 161.545 328.8 156.845C337.5 139.445 336.3 117.645 325.7 101.245C323.2 97.4454 320.4 94.1454 317.4 91.3454C307.1 81.5454 293.2 76.2454 278.8 76.2454Z" fill="#333333"/>
<path d="M145.1 159.645C143.3 161.745 141.3 163.745 139.1 165.345C130.8 171.745 120.1 174.845 109.5 175.845C92.5004 177.445 74.3004 173.945 61.0004 163.245C51.0004 155.245 44.3004 142.645 43.8004 130.045C43.6004 125.745 44.2004 121.545 45.5004 117.445C47.7004 110.845 56.5004 110.445 63.5004 110.145C93.4004 108.745 123.9 106.245 153.7 104.845C154.2 109.345 154.6 113.845 154.9 118.445C155.8 133.345 154.4 148.345 145.1 159.645Z" fill="white"/>
<path d="M155 118.445C117.6 118.245 79.4 118.245 43.9 130.045C43.7 125.745 44.3 121.545 45.6 117.445C47.8 110.845 56.6 110.445 63.6 110.145C93.5 108.745 124 106.245 153.8 104.845C154.3 109.245 154.8 113.845 155 118.445Z" fill="#E6E6E6"/>
<path d="M101.8 178.546C85.5002 178.546 70.5002 173.746 59.6002 165.046C44.7002 153.046 38.0002 133.146 43.4002 116.646C46.1002 108.546 56.1002 108.046 63.4002 107.646H63.5002C78.5002 106.946 93.8002 105.946 108.7 105.046C123.5 104.046 138.8 103.146 153.8 102.446C154.4 102.446 155.1 102.646 155.5 103.046C155.9 103.446 156.2 104.046 156.2 104.646C158.4 124.846 159.5 145.846 147 161.046C145 163.446 142.8 165.446 140.6 167.146C130.8 174.646 118.5 177.246 109.9 178.146C107.1 178.446 104.4 178.546 101.8 178.546ZM151.7 107.246C137.5 107.946 123 108.846 108.9 109.746C94.0002 110.746 78.7002 111.646 63.7002 112.346H63.6002C57.3002 112.646 49.5002 113.046 47.9002 118.046C43.1002 132.746 49.2002 150.546 62.6002 161.346C74.3002 170.746 91.4002 175.146 109.4 173.446C117.4 172.646 128.8 170.246 137.8 163.346C139.8 161.846 141.7 160.046 143.5 157.946C154.3 144.846 153.7 125.846 151.7 107.246Z" fill="#333333"/>
<path d="M122.9 311.145C122.3 311.145 121.7 310.945 121.3 310.445C120.4 309.545 120.3 308.045 121.2 307.145C140.1 287.545 159.7 267.245 184.3 253.945C200 245.545 214.3 242.545 226.7 245.145C240.8 248.045 255.2 261.245 253.8 277.345C253.7 278.645 252.5 279.545 251.3 279.445C250 279.345 249.1 278.245 249.2 276.945C250.4 263.445 238 252.245 225.8 249.745C214.5 247.345 201.2 250.145 186.5 258.145C162.5 271.045 143.2 291.045 124.5 310.445C124.1 310.845 123.5 311.145 122.9 311.145Z" fill="#333333"/>
<path d="M330.9 157.846C328.4 162.746 325.3 167.346 321.5 171.346C312.1 167.646 304.5 158.946 300.7 149.346C295.2 135.446 296.3 119.146 303.7 106.246C307.5 99.6455 312.9 93.4455 319 89.6455C322.2 92.5455 325.1 96.0455 327.7 99.9455C338.7 116.946 340 139.746 330.9 157.846Z" fill="#333333"/>
<path d="M145.1 159.645C143.3 161.745 141.3 163.745 139.1 165.345C131.5 160.645 125.7 150.045 124.6 142.545C122.4 128.345 130.7 113.145 143.8 107.245C147 105.845 150.4 104.945 153.9 104.845C155.9 123.745 157.3 144.945 145.1 159.645Z" fill="#333333"/>
<path d="M125.6 163.846C116.4 169.246 105 171.745 93.9004 170.546C77.0004 168.745 61.1004 158.546 53.6004 144.446C46.1004 130.446 47.3004 113.146 56.6004 100.546C62.1004 93.1455 69.4004 88.0455 77.7004 85.1455C72.7004 88.0455 68.3004 91.9455 64.7004 96.8455C55.4004 109.446 54.2004 126.746 61.7004 140.746C69.2004 154.746 85.1004 165.046 102 166.846C110 167.646 118.2 166.546 125.6 163.846Z" fill="#E6E6E6"/>
<path d="M0 136.446C23.3 120.846 51.2 112.346 79.2 112.246C93.2 112.246 107.2 114.246 121.2 113.646C135.2 113.046 149.7 109.446 159.9 99.7455C170.1 90.1455 174.4 73.4455 166.8 61.6455C148.7 74.5455 124.5 77.9455 102.2 78.6455C79.9 79.3455 56.7 79.2455 36.7 89.0455C18.1 98.0455 5.2 116.446 0 136.446Z" fill="#333333"/>
<path d="M370.7 75.4455C347.4 59.8455 319.5 51.3455 291.5 51.2455C277.5 51.2455 263.5 53.2455 249.5 52.6455C235.5 52.0455 221 48.4455 210.8 38.7455C200.6 29.1455 196.3 12.4455 203.9 0.645508C222 13.5455 246.2 16.9455 268.5 17.6455C290.8 18.3455 314 18.2455 334 28.0455C352.6 37.0455 365.5 55.4455 370.7 75.4455Z" fill="#333333"/>
<path d="M133.1 143.045H125.5C121.9 143.045 118.9 140.045 118.9 136.445C118.9 132.845 121.9 129.845 125.5 129.845H133.1C136.7 129.845 139.7 132.845 139.7 136.445C139.7 140.145 136.8 143.045 133.1 143.045Z" fill="white"/>
<path d="M305.3 141.646H297.7C294.1 141.646 291.1 138.646 291.1 135.046C291.1 131.446 294.1 128.446 297.7 128.446H305.3C308.9 128.446 311.9 131.446 311.9 135.046C311.9 138.746 309 141.646 305.3 141.646Z" fill="white"/>
</g>
<defs>
<clipPath id="clip0_6_852">
<rect width="370.7" height="310.5" fill="white" transform="translate(0 0.645508)"/>
</clipPath>
</defs>
</svg>
