<svg width="168" height="167" viewBox="0 0 168 167" fill="none" xmlns="http://www.w3.org/2000/svg">
<rect x="0.5" width="167" height="167" rx="30" fill="#419AE9"/>
<circle cx="142.558" cy="127.961" r="13.7359" fill="white"/>
<path d="M88.1721 93.5L72.6921 91.34C61.2921 89.72 52.7121 85.94 46.9521 80C41.0721 73.94 38.1321 65.36 38.1321 54.26C38.1321 42.32 42.3321 32.6 50.7321 25.1C59.1921 17.54 70.5921 13.76 84.9321 13.76C95.0121 13.76 104.192 15.38 112.472 18.62C116.552 20.24 119.762 22.4 122.102 25.1C124.442 27.74 125.612 30.74 125.612 34.1C125.612 37.58 124.352 40.82 121.832 43.82C119.492 46.7 116.432 48.14 112.652 48.14C110.072 48.14 106.352 47.12 101.492 45.08C95.8521 42.68 90.0321 41.48 84.0321 41.48C78.9921 41.48 75.1521 42.62 72.5121 44.9C69.8721 47.12 68.5521 49.58 68.5521 52.28C68.5521 55.16 69.3921 57.44 71.0721 59.12C73.0521 61.1 75.9921 62.36 79.8921 62.9L95.3721 65.06C106.712 66.68 115.112 70.22 120.572 75.68C126.932 81.86 130.112 91.22 130.112 103.76C130.112 112.16 127.832 119.48 123.272 125.72C118.772 131.9 112.832 136.52 105.452 139.58C98.0721 142.58 89.7921 144.08 80.6121 144.08C68.3121 144.08 58.5321 142.64 51.2721 139.76C45.6321 137.54 41.4321 135.05 38.6721 132.29C35.9121 129.47 34.5321 125.84 34.5321 121.4C34.5321 117.44 35.9721 114.02 38.8521 111.14C41.1321 108.86 44.0121 107.72 47.4921 107.72C48.9921 107.72 50.4921 107.99 51.9921 108.53C53.5521 109.01 56.1321 110 59.7321 111.5C66.9921 114.62 74.0121 116.18 80.7921 116.18C86.9121 116.18 91.5021 115.19 94.5621 113.21C97.6221 111.17 99.1521 108.26 99.1521 104.48C99.1521 101.3 98.3121 98.78 96.6321 96.92C94.8321 95.12 92.0121 93.98 88.1721 93.5Z" fill="white"/>
</svg>
