<svg width="145" height="27" viewBox="0 0 145 27" fill="none" xmlns="http://www.w3.org/2000/svg">
<path d="M11.5313 16.1L8.4353 15.668C6.1553 15.344 4.4393 14.588 3.2873 13.4C2.1113 12.188 1.5233 10.472 1.5233 8.252C1.5233 5.864 2.3633 3.92 4.0433 2.42C5.7353 0.907998 8.0153 0.151998 10.8833 0.151998C12.8993 0.151998 14.7353 0.475998 16.3913 1.124C17.2073 1.448 17.8493 1.88 18.3173 2.42C18.7853 2.948 19.0193 3.548 19.0193 4.22C19.0193 4.916 18.7673 5.564 18.2633 6.164C17.7953 6.74 17.1833 7.028 16.4273 7.028C15.9113 7.028 15.1673 6.824 14.1953 6.416C13.0673 5.936 11.9033 5.696 10.7033 5.696C9.6953 5.696 8.9273 5.924 8.3993 6.38C7.8713 6.824 7.6073 7.316 7.6073 7.856C7.6073 8.432 7.7753 8.888 8.1113 9.224C8.5073 9.62 9.0953 9.872 9.8753 9.98L12.9713 10.412C15.2393 10.736 16.9193 11.444 18.0113 12.536C19.2833 13.772 19.9193 15.644 19.9193 18.152C19.9193 19.832 19.4633 21.296 18.5513 22.544C17.6513 23.78 16.4633 24.704 14.9873 25.316C13.5113 25.916 11.8553 26.216 10.0193 26.216C7.5593 26.216 5.6033 25.928 4.1513 25.352C3.0233 24.908 2.1833 24.41 1.6313 23.858C1.0793 23.294 0.803297 22.568 0.803297 21.68C0.803297 20.888 1.0913 20.204 1.6673 19.628C2.1233 19.172 2.6993 18.944 3.3953 18.944C3.6953 18.944 3.9953 18.998 4.2953 19.106C4.6073 19.202 5.1233 19.4 5.8433 19.7C7.2953 20.324 8.6993 20.636 10.0553 20.636C11.2793 20.636 12.1973 20.438 12.8093 20.042C13.4213 19.634 13.7273 19.052 13.7273 18.296C13.7273 17.66 13.5593 17.156 13.2233 16.784C12.8633 16.424 12.2993 16.196 11.5313 16.1ZM36.8315 14.832V22.576C36.8315 23.2373 36.8101 23.712 36.7675 24C36.7355 24.288 36.6501 24.5707 36.5115 24.848C36.3195 25.232 36.0155 25.5413 35.5995 25.776C35.1941 26.0107 34.7301 26.128 34.2075 26.128C33.0981 26.128 32.2768 25.616 31.7435 24.592C31.1141 25.1787 30.5275 25.5893 29.9835 25.824C29.4395 26.048 28.7355 26.16 27.8715 26.16C26.1435 26.16 24.7675 25.648 23.7435 24.624C22.7408 23.6213 22.2395 22.2773 22.2395 20.592C22.2395 19.92 22.3568 19.296 22.5915 18.72C22.8261 18.1333 23.1728 17.6053 23.6315 17.136C24.1008 16.656 24.7248 16.2827 25.5035 16.016C26.2821 15.7387 27.1781 15.6 28.1915 15.6H31.5835V15.152C31.5835 14.384 31.3861 13.8347 30.9915 13.504C30.5968 13.1733 29.9835 13.008 29.1515 13.008C28.4795 13.008 27.7648 13.168 27.0075 13.488C26.3461 13.7653 25.8128 13.904 25.4075 13.904C24.7995 13.904 24.3088 13.6693 23.9355 13.2C23.5515 12.7307 23.3595 12.208 23.3595 11.632C23.3595 11.1307 23.5195 10.704 23.8395 10.352C24.1595 9.98933 24.5328 9.712 24.9595 9.52C26.3461 8.90133 27.7755 8.592 29.2475 8.592C31.7328 8.592 33.6155 9.11467 34.8955 10.16C36.1861 11.1947 36.8315 12.752 36.8315 14.832ZM31.5835 19.536V19.088H29.0875C28.4901 19.088 28.0368 19.216 27.7275 19.472C27.4181 19.7173 27.2635 20.0587 27.2635 20.496C27.2635 20.912 27.4235 21.2533 27.7435 21.52C28.0635 21.776 28.5328 21.904 29.1515 21.904C29.5995 21.904 29.9568 21.8613 30.2235 21.776C30.5008 21.6907 30.7728 21.5307 31.0395 21.296C31.4021 20.9653 31.5835 20.3787 31.5835 19.536ZM42.6902 23.52L39.5062 12.608C39.3355 12.0213 39.2289 11.6053 39.1862 11.36C39.1542 11.104 39.1649 10.816 39.2182 10.496C39.3142 9.99467 39.6022 9.56267 40.0822 9.2C40.5622 8.83733 41.0955 8.656 41.6822 8.656C42.3969 8.656 42.9515 8.88 43.3462 9.328C43.5382 9.54133 43.6929 9.776 43.8102 10.032C43.9275 10.288 44.0609 10.6987 44.2102 11.264L46.0022 17.712L48.1942 11.056C48.4822 10.1707 48.8075 9.56267 49.1702 9.232C49.5862 8.848 50.1302 8.656 50.8022 8.656C51.4742 8.656 52.0182 8.848 52.4342 9.232C52.7969 9.56267 53.1222 10.1707 53.4102 11.056L55.6022 17.712L57.3942 11.264C57.5435 10.6987 57.6769 10.288 57.7942 10.032C57.9115 9.776 58.0662 9.54133 58.2582 9.328C58.6529 8.88 59.2075 8.656 59.9222 8.656C60.5089 8.656 61.0422 8.83733 61.5222 9.2C62.0022 9.56267 62.2902 9.99467 62.3862 10.496C62.4395 10.816 62.4449 11.104 62.4022 11.36C62.3702 11.6053 62.2689 12.0213 62.0982 12.608L58.9142 23.52C58.6369 24.4693 58.2849 25.12 57.8582 25.472C57.3355 25.9093 56.7169 26.128 56.0022 26.128C55.2982 26.128 54.6849 25.9093 54.1622 25.472C53.7569 25.1307 53.3995 24.48 53.0902 23.52L50.8022 16.56L48.5142 23.52C48.2049 24.48 47.8475 25.1307 47.4422 25.472C46.9195 25.9093 46.3062 26.128 45.6022 26.128C44.8875 26.128 44.2689 25.9093 43.7462 25.472C43.3195 25.12 42.9675 24.4693 42.6902 23.52ZM78.1752 14.832V22.576C78.1752 23.2373 78.1539 23.712 78.1112 24C78.0792 24.288 77.9939 24.5707 77.8552 24.848C77.6632 25.232 77.3592 25.5413 76.9432 25.776C76.5379 26.0107 76.0739 26.128 75.5512 26.128C74.4419 26.128 73.6205 25.616 73.0872 24.592C72.4579 25.1787 71.8712 25.5893 71.3272 25.824C70.7832 26.048 70.0792 26.16 69.2152 26.16C67.4872 26.16 66.1112 25.648 65.0872 24.624C64.0845 23.6213 63.5832 22.2773 63.5832 20.592C63.5832 19.92 63.7005 19.296 63.9352 18.72C64.1699 18.1333 64.5165 17.6053 64.9752 17.136C65.4445 16.656 66.0685 16.2827 66.8472 16.016C67.6259 15.7387 68.5219 15.6 69.5352 15.6H72.9272V15.152C72.9272 14.384 72.7299 13.8347 72.3352 13.504C71.9405 13.1733 71.3272 13.008 70.4952 13.008C69.8232 13.008 69.1085 13.168 68.3512 13.488C67.6899 13.7653 67.1565 13.904 66.7512 13.904C66.1432 13.904 65.6525 13.6693 65.2792 13.2C64.8952 12.7307 64.7032 12.208 64.7032 11.632C64.7032 11.1307 64.8632 10.704 65.1832 10.352C65.5032 9.98933 65.8765 9.712 66.3032 9.52C67.6899 8.90133 69.1192 8.592 70.5912 8.592C73.0765 8.592 74.9592 9.11467 76.2392 10.16C77.5299 11.1947 78.1752 12.752 78.1752 14.832ZM72.9272 19.536V19.088H70.4312C69.8339 19.088 69.3805 19.216 69.0712 19.472C68.7619 19.7173 68.6072 20.0587 68.6072 20.496C68.6072 20.912 68.7672 21.2533 69.0872 21.52C69.4072 21.776 69.8765 21.904 70.4952 21.904C70.9432 21.904 71.3005 21.8613 71.5672 21.776C71.8445 21.6907 72.1165 21.5307 72.3832 21.296C72.7459 20.9653 72.9272 20.3787 72.9272 19.536ZM88.402 26H88.306C87.4206 26 86.626 25.8507 85.922 25.552C85.2286 25.2427 84.674 24.8373 84.258 24.336C83.8526 23.8347 83.5433 23.296 83.33 22.72C83.1273 22.1333 83.026 21.5307 83.026 20.912V13.488H83.01C82.21 13.488 81.634 13.4027 81.282 13.232C80.6206 12.912 80.29 12.3253 80.29 11.472C80.29 10.6187 80.6206 10.032 81.282 9.712C81.634 9.54133 82.21 9.456 83.01 9.456H83.026V7.952C83.026 7.29067 83.042 6.816 83.074 6.528C83.1166 6.24 83.2073 5.95733 83.346 5.68C83.538 5.296 83.8366 4.98667 84.242 4.752C84.658 4.51733 85.1273 4.4 85.65 4.4C86.1726 4.4 86.6366 4.51733 87.042 4.752C87.458 4.98667 87.762 5.296 87.954 5.68C88.0926 5.95733 88.178 6.24 88.21 6.528C88.2526 6.816 88.274 7.29067 88.274 7.952V9.456H88.882C89.682 9.456 90.258 9.54133 90.61 9.712C91.2713 10.032 91.602 10.6187 91.602 11.472C91.602 12.3253 91.2713 12.912 90.61 13.232C90.258 13.4027 89.682 13.488 88.882 13.488H88.274V20.528C88.274 21.2213 88.5993 21.584 89.25 21.616C89.7833 21.648 90.2153 21.744 90.546 21.904C91.25 22.256 91.602 22.8853 91.602 23.792C91.602 24.6667 91.2393 25.2853 90.514 25.648C90.0446 25.8827 89.3406 26 88.402 26ZM108.351 22.576C108.351 23.2373 108.33 23.712 108.287 24C108.255 24.288 108.17 24.5707 108.031 24.848C107.839 25.232 107.535 25.5413 107.119 25.776C106.714 26.0107 106.25 26.128 105.727 26.128C104.618 26.128 103.796 25.616 103.263 24.592C102.719 25.136 102.138 25.5413 101.519 25.808C100.9 26.064 100.159 26.192 99.295 26.192C97.535 26.192 96.1483 25.6693 95.135 24.624C94.751 24.2293 94.4416 23.776 94.207 23.264C93.9723 22.752 93.807 22.144 93.711 21.44C93.615 20.736 93.5563 20.1227 93.535 19.6C93.5136 19.0667 93.503 18.3307 93.503 17.392C93.503 16.4533 93.5136 15.7227 93.535 15.2C93.5563 14.6667 93.615 14.048 93.711 13.344C93.807 12.64 93.9723 12.032 94.207 11.52C94.4416 11.008 94.751 10.5547 95.135 10.16C96.1483 9.11467 97.5243 8.592 99.263 8.592C100.863 8.592 102.143 9.072 103.103 10.032V6.64C103.103 5.97867 103.119 5.504 103.151 5.216C103.194 4.928 103.284 4.64533 103.423 4.368C103.615 3.984 103.914 3.67467 104.319 3.44C104.735 3.20533 105.204 3.088 105.727 3.088C106.25 3.088 106.714 3.20533 107.119 3.44C107.535 3.67467 107.839 3.984 108.031 4.368C108.17 4.64533 108.255 4.928 108.287 5.216C108.33 5.504 108.351 5.97867 108.351 6.64V22.576ZM99.951 21.264C100.218 21.392 100.543 21.456 100.927 21.456C101.311 21.456 101.636 21.392 101.903 21.264C102.17 21.136 102.378 20.9707 102.527 20.768C102.687 20.5547 102.81 20.2667 102.895 19.904C102.98 19.5307 103.034 19.1573 103.055 18.784C103.087 18.4107 103.103 17.9467 103.103 17.392C103.103 16.8373 103.087 16.3733 103.055 16C103.034 15.6267 102.98 15.2587 102.895 14.896C102.81 14.5227 102.687 14.2347 102.527 14.032C102.378 13.8187 102.17 13.648 101.903 13.52C101.636 13.392 101.311 13.328 100.927 13.328C100.543 13.328 100.218 13.392 99.951 13.52C99.6843 13.648 99.471 13.8187 99.311 14.032C99.1616 14.2347 99.0443 14.5227 98.959 14.896C98.8736 15.2587 98.815 15.6267 98.783 16C98.7616 16.3733 98.751 16.8373 98.751 17.392C98.751 17.9467 98.7616 18.4107 98.783 18.784C98.815 19.1573 98.8736 19.5307 98.959 19.904C99.0443 20.2667 99.1616 20.5547 99.311 20.768C99.471 20.9707 99.6843 21.136 99.951 21.264ZM124.122 19.088H116.714C116.714 19.8347 116.991 20.4747 117.546 21.008C118.1 21.5413 118.858 21.808 119.818 21.808C120.756 21.808 121.62 21.552 122.41 21.04C123.082 20.592 123.69 20.368 124.234 20.368C124.735 20.368 125.204 20.5867 125.642 21.024C126.09 21.4507 126.314 21.9573 126.314 22.544C126.314 23.3653 125.77 24.1547 124.682 24.912C123.444 25.7653 121.802 26.192 119.754 26.192C114.292 26.192 111.562 23.2587 111.562 17.392C111.562 14.6293 112.271 12.4747 113.69 10.928C115.108 9.37067 116.97 8.592 119.274 8.592C120.82 8.592 122.175 8.93867 123.338 9.632C124.511 10.3253 125.396 11.232 125.994 12.352C126.591 13.472 126.922 14.7253 126.986 16.112C127.028 17.1573 126.794 17.936 126.282 18.448C126.09 18.64 125.855 18.7893 125.578 18.896C125.311 18.992 125.082 19.0507 124.89 19.072C124.698 19.0827 124.442 19.088 124.122 19.088ZM116.714 15.6H121.834C121.834 15.088 121.738 14.64 121.546 14.256C121.119 13.36 120.362 12.912 119.274 12.912C118.164 12.912 117.407 13.36 117.002 14.256C116.81 14.672 116.714 15.12 116.714 15.6ZM141.934 19.088H134.526C134.526 19.8347 134.804 20.4747 135.358 21.008C135.913 21.5413 136.67 21.808 137.63 21.808C138.569 21.808 139.433 21.552 140.222 21.04C140.894 20.592 141.502 20.368 142.046 20.368C142.548 20.368 143.017 20.5867 143.454 21.024C143.902 21.4507 144.126 21.9573 144.126 22.544C144.126 23.3653 143.582 24.1547 142.494 24.912C141.257 25.7653 139.614 26.192 137.566 26.192C132.105 26.192 129.374 23.2587 129.374 17.392C129.374 14.6293 130.084 12.4747 131.502 10.928C132.921 9.37067 134.782 8.592 137.086 8.592C138.633 8.592 139.988 8.93867 141.15 9.632C142.324 10.3253 143.209 11.232 143.806 12.352C144.404 13.472 144.734 14.7253 144.798 16.112C144.841 17.1573 144.606 17.936 144.094 18.448C143.902 18.64 143.668 18.7893 143.39 18.896C143.124 18.992 142.894 19.0507 142.702 19.072C142.51 19.0827 142.254 19.088 141.934 19.088ZM134.526 15.6H139.646C139.646 15.088 139.55 14.64 139.358 14.256C138.932 13.36 138.174 12.912 137.086 12.912C135.977 12.912 135.22 13.36 134.814 14.256C134.622 14.672 134.526 15.12 134.526 15.6Z" fill="#419AE9"/>
</svg>
