<svg width="605" height="594" viewBox="0 0 605 594" fill="none" xmlns="http://www.w3.org/2000/svg">
<path fill-rule="evenodd" clip-rule="evenodd" d="M348.217 593.52C420.646 593.52 484.206 527.743 448.511 438.403C412.815 349.062 545.447 351.948 584.408 290.201C631.922 214.899 618.162 -104.748 313.141 90.1241C264.281 121.34 138.796 58.0098 97.1717 89.4333C48.1762 126.422 -20.7576 202.162 48.1762 279.748C82.1317 317.965 -39.6067 417.158 13.7123 506.01C65.7383 592.708 102.208 510.06 181.416 527.743C260.625 545.427 294.425 593.52 348.217 593.52Z" fill="#42B4F4"/>
<path d="M264.149 438.093C264.149 438.093 280.826 428.515 287.052 421.852C293.278 415.189 301.019 398.635 301.019 398.635C301.019 398.635 386.042 473.6 441.48 462.906C454.253 460.442 479.142 450.077 480.729 431.813C485.063 381.943 425.099 369.198 438.197 343.908C446.193 328.471 471.03 351.446 471.03 351.446L574.048 413.31C574.048 413.31 538.458 520.416 452.09 524.708C345.846 529.988 264.149 438.093 264.149 438.093Z" fill="white"/>
<path fill-rule="evenodd" clip-rule="evenodd" d="M182.473 18.6408C181.506 18.1774 176.313 10.415 169.721 9.00216C166.725 8.36016 169.444 13.0171 166.147 13.059C156.328 13.1838 140.372 10.9316 137.416 13.059C135.219 14.635 140.057 20.1409 137.416 20.3937C112.494 22.7786 74.4743 53.1577 66.2255 67.8961C63.6004 72.5866 84.8318 64.6287 81.449 66.9475C77.6522 69.5501 73.4414 86.5915 70.9237 99.7533C69.1807 108.817 68.0833 120.481 67.696 133.17C67.3732 144.125 67.5023 145.938 68.7934 151.928C70.2782 158.627 71.4402 160.597 73.4414 159.651C74.1515 159.336 74.4743 158.154 74.4743 155.947C74.4743 154.213 75.2489 149.011 76.2173 144.361L77.8957 136.007L78.6058 139.475C79.5096 143.495 84.8031 155.947 89.5802 165.01C89.8378 165.491 90.9463 164.88 91.9459 161.93C92.8568 159.242 92.4871 154.948 94.0345 150.346C97.5592 139.862 104.48 126.232 112.494 115.322C124.338 99.1969 128.267 80.5357 139.369 65.5558C160.088 37.6003 186.092 20.3756 182.473 18.6408Z" fill="white"/>
<path fill-rule="evenodd" clip-rule="evenodd" d="M81.7436 70.7508C78.4199 74.0137 73.4864 100.48 73.4018 100.922C71.6588 109.986 69.9786 141.46 71.696 147.419C73.4134 153.378 78.2224 131.897 78.2224 131.897C78.2224 131.897 85.4911 154.94 91.9137 161.258C92.1881 161.528 84.2796 132.749 81.7436 115.948C78.3959 93.7708 83.6351 68.8938 81.7436 70.7508Z" fill="#E7EAEE"/>
<path fill-rule="evenodd" clip-rule="evenodd" d="M205.624 534.268C211.821 532.613 222.278 526.849 226.281 524.878C230.285 522.907 242.485 501.876 246.874 478.153C250.038 460.657 251.651 435.752 249.844 431.575C249.577 430.982 248.6 419.657 251.2 423.355C256.978 431.575 263.836 444.479 285.478 421.355C291.372 415.057 299.185 406.929 297.127 399.744C291.372 379.638 266.423 339.154 262.619 336.088C258.072 332.421 235.086 335.537 200.879 323.211C162.086 309.232 145.932 268.068 130.751 273.427C118.474 277.76 89.0594 304.39 81.6773 321.254C46.8259 400.868 89.0594 456.654 98.6776 472.677L108.016 477.601L108.339 487.768L108.791 494.152C109.63 506.368 109.953 507.471 114.472 511.57C125.769 522.052 148.04 531.825 168.182 535.292C177.542 536.869 197.877 536.317 205.624 534.268Z" fill="white"/>
<path fill-rule="evenodd" clip-rule="evenodd" d="M111.689 484.047L112.141 490.43C112.98 502.646 113.303 503.75 117.822 507.848C124.487 514.032 134.971 519.969 146.583 524.51C154.655 527.667 163.273 530.149 171.532 531.571C180.892 533.147 201.227 532.595 208.974 530.546C212.803 529.533 181.307 499.324 162.752 507.848C148.503 514.394 114.919 464.462 128.574 451.417C143.892 436.783 115.822 379.065 114.919 366.534C114.015 354.004 110.456 351.01 110.352 351.449C110.248 351.889 110.248 353.388 110.527 357C111.732 372.571 111.689 484.047 111.689 484.047Z" fill="#E7EAEE"/>
<path fill-rule="evenodd" clip-rule="evenodd" d="M108.327 362.957C109.682 362.635 110.994 363.715 111.258 365.37C116.13 395.929 136.739 416.618 173.59 427.436C210.661 438.319 235.911 437.732 249.216 426.116C250.339 425.135 249.502 433.532 248.679 434.176C240.002 440.97 210.499 451.107 175.291 441.945C130.274 430.231 109.137 384.018 106.35 366.536C106.086 364.881 106.971 363.279 108.327 362.957Z" fill="#FFB61D"/>
<path fill-rule="evenodd" clip-rule="evenodd" d="M89.5538 307.821C90.7522 306.984 135.464 369.545 196.824 383.706C258.183 397.867 273.04 388.861 275.428 369.545C275.634 367.878 276.907 366.731 278.273 366.982C279.638 367.234 280.578 368.789 280.372 370.456C277.345 394.936 248.953 400.759 195.982 389.723C143.678 378.826 107.817 352.937 88.6254 311.986C87.9397 310.523 88.3554 308.658 89.5538 307.821Z" fill="#FFB61D"/>
<path fill-rule="evenodd" clip-rule="evenodd" d="M347.091 304.352C345.412 303.642 343.605 302.066 342.443 300.253L340.506 297.337L347.349 289.062C357.872 276.452 365.941 263.527 372.913 248.158C375.237 243.035 381.111 225.933 381.111 224.278C381.111 223.726 381.821 221.519 382.661 219.234C383.952 215.923 384.92 214.662 387.696 212.771C390.988 210.407 394.733 209.618 396.346 210.958C399.445 213.48 399.445 221.44 396.346 235.154C392.925 250.207 388.342 261.004 378.852 276.531C377.367 278.895 374.591 283.545 372.59 286.776C367.232 295.446 363.746 299.623 359.034 302.854C354.386 306.007 351.674 306.401 347.091 304.352ZM393.441 297.258L398.089 299.78C399.053 300.324 409.685 306.56 422.456 314.052C443.047 326.131 469.199 341.473 469.358 341.473C469.616 341.473 470.828 338.053 471.101 334.064C471.747 325.474 474.135 313.809 476.911 305.691C478.202 302.066 479.235 297.535 479.235 297.141C479.235 296.961 478.186 296.444 476.468 295.598C474.422 294.591 471.43 293.117 468.132 291.19C451.864 281.654 420.038 262.187 416.1 259.271C412.227 256.512 411.452 256.276 411.452 258.088C411.452 260.453 407.514 271.408 404.48 277.319C402.866 280.55 399.703 286.382 397.444 290.244L393.441 297.258ZM468.261 327.286C470.112 328.596 466.905 330.518 466.13 330.833C461.569 331.306 456.199 330.258 451.799 327.129C449.499 325.137 431.384 312.851 419.368 304.7C413.875 300.975 409.656 298.113 408.806 297.495C406.094 295.525 403.512 293.397 403.06 292.766C401.704 290.638 402.996 289.692 406.804 290.087C409.094 290.323 464.262 324.457 468.261 327.286ZM223.475 525.771L223.476 525.77C224.68 525.15 225.715 524.616 226.502 524.229C230.506 522.258 242.705 501.227 247.095 477.504C250.258 460.007 251.872 435.102 250.064 430.925C248.975 428.506 255.448 436.621 260.27 442.664L260.27 442.664L260.271 442.665L260.272 442.667C261.733 444.498 263.043 446.14 263.944 447.24C292.09 481.366 333.986 508.793 377.496 521.639C399.187 528.102 414.615 530.387 435.338 530.387C470.133 530.387 497.569 522.033 522.487 503.67C523.671 502.798 524.78 501.996 525.837 501.232C534.523 494.953 539.698 491.213 553.861 471.751C569.747 449.919 583.879 399.243 588.592 381.746C590.657 373.865 595.693 342.517 595.693 334.695C595.693 325.433 593.046 321.06 589.431 316.568C583.04 308.923 574.389 306.164 567.224 309.474L563.867 311.051L562.834 306.874C561.349 300.569 558.251 295.525 553.474 291.742C546.372 285.988 545.34 285.594 538.949 285.594C533.978 285.594 532.622 285.909 529.459 287.722L525.779 289.771L525.005 286.934C523.52 281.102 518.54 272.972 514.676 270.62C511.249 268.534 505.317 268.343 501.184 269.28C492.146 271.329 485.691 276.452 483.044 283.624C482.269 285.831 481.301 287.564 480.914 287.564C480.591 287.564 467.873 283.228 452.703 275.032C450.144 273.645 447.74 272.344 445.483 271.122C418.241 256.381 412.336 253.186 412.872 249.183C413.324 245.794 413.195 243.902 412.421 240.986C411.065 236.1 409.516 234.76 405.126 234.76C401.64 234.76 401.64 234.76 402.027 232.632C404.093 220.573 404.028 213.638 401.834 209.224C400.349 206.308 398.606 205.126 394.603 204.417C392.279 204.023 391.182 204.259 388.6 205.993C386.857 207.096 385.372 207.885 385.243 207.727C385.114 207.569 385.566 203.235 386.276 198.112C391.569 160.203 387.48 127.54 373.988 92.8625C373.859 92.5328 373.711 92.1434 373.541 91.698L373.537 91.6892C369.436 80.9384 352.943 37.709 305.776 15.896C303.642 14.9092 301.623 13.9551 299.682 13.038L299.679 13.0368L299.679 13.0365C283.612 5.44381 272.931 0.396266 247.159 0.448646C218.274 0.507356 208.491 5.49268 189.447 16.1324C186.8 17.6299 184.476 18.4968 184.283 18.1816C184.089 17.7875 182.863 16.8418 181.636 16.0536C180.409 15.2655 177.763 13.2952 175.826 11.7189C170.274 7.14775 166.853 5.25624 165.11 5.72912C163.109 6.35962 163.109 8.40876 165.11 9.35452C165.949 9.74858 166.917 11.0884 167.305 12.4282C168.144 15.2655 169.112 15.5807 169.693 13.2164C169.952 12.3494 170.339 11.7189 170.533 11.8765C170.606 11.9214 170.852 12.0618 171.227 12.2762L171.227 12.2763C172.171 12.8156 173.932 13.8224 175.826 14.9502C178.473 16.5265 181.378 18.1816 182.152 18.5756C183.573 19.2061 183.121 19.679 176.988 24.0926C153.038 41.2738 133.542 67.9914 122.633 98.4132C120.954 102.984 119.469 105.822 117.92 107.398C113.982 111.417 106.236 122.845 104.428 127.338C103.46 129.781 101.394 133.564 99.7801 135.771C98.2308 137.977 96.5524 140.815 95.9714 141.997C95.4549 143.258 94.9385 144.125 94.7448 143.967C94.6157 143.731 94.8094 139.869 95.2613 135.377C96.2296 124.894 96.2296 122.136 95.4549 121.9C94.2929 121.505 92.6145 127.022 91.9044 133.879C91.388 138.056 91.2589 144.361 91.5816 150.824L91.969 161.07L87.3855 152.006C85.8068 148.97 84.2521 145.934 83.1495 143.781L83.1487 143.78L83.1417 143.766C82.4448 142.405 81.9296 141.399 81.7047 140.972C80.0263 137.977 79.0579 133.485 79.768 131.988C80.1554 131.121 80.0908 130.727 79.4453 130.727C78.0896 130.727 75.4428 136.007 73.6999 142.076C72.8606 144.913 72.0214 147.277 71.7632 147.277C70.7949 147.277 71.2468 119.062 72.2796 109.999C74.41 92.1082 80.0263 70.0405 82.5439 70.0405C83.0604 70.0405 83.5122 69.7253 83.5122 69.2524C83.5122 67.8338 81.8338 68.3855 80.4781 70.1982C77.4441 74.2176 73.4416 86.5913 70.924 99.7531C69.181 108.817 68.0836 120.481 67.6962 133.17C67.3735 144.125 67.5026 145.937 68.7937 151.927C70.2784 158.626 71.4404 160.597 73.4416 159.651C74.1517 159.336 74.4745 158.153 74.4745 155.947C74.4745 154.213 75.2492 149.011 76.2175 144.361L77.8959 136.007L78.606 139.475C79.5098 143.494 84.8033 155.947 89.5804 165.01C92.8727 171.158 92.9373 171.552 94.0347 181.167C94.6157 186.605 96.4233 199.832 100.619 220.179C104.327 238.157 125.169 255.991 130.374 260.444C131.059 261.031 131.474 261.386 131.541 261.477C132.187 262.344 133.091 262.817 133.607 262.581C134.188 262.344 134.511 262.66 134.511 263.527C134.511 264.315 134.963 265.339 135.479 265.812C136.125 266.364 136.577 268.492 136.706 272.196C137.028 279.604 141.547 293.791 145.033 298.441C147.293 301.436 152.005 302.697 157.234 301.593C160.656 300.963 161.624 300.49 161.301 299.544C161.107 298.914 162.334 299.702 164.012 301.278C183.637 319.563 203.52 330.518 225.856 335.246C234.507 337.059 248.838 338.084 256.649 337.374C263.556 336.823 263.556 336.823 263.234 338.478C262.782 340.684 263.363 342.024 272.852 361.649C280.405 377.175 281.051 378.199 289.443 388.682C307.26 411.143 326.691 428.561 348.705 442.038C369.427 454.648 402.511 465.13 432.755 468.44C463 471.75 484.722 437.861 484.658 429.191C484.529 417.291 483.173 409.488 479.881 401.922C476.653 394.593 474.523 392.071 464.839 384.189C454.059 375.441 447.409 368.269 443.02 360.624C440.244 355.817 439.211 350.378 439.211 347.462C439.211 345.571 441.212 341.315 444.182 340.448C446.893 339.581 447.409 339.66 450.444 341.473C452.251 342.497 456.964 345.177 460.837 347.462C464.775 349.669 468.584 351.876 469.358 352.349C471.642 353.123 472.608 358.581 473.131 361.539L473.131 361.54L473.131 361.542C473.248 362.201 473.343 362.737 473.425 363.067C474.329 367.166 478.606 372.457 481.365 374.259C486.211 377.423 498.151 377.846 501.443 373.511C502.283 372.407 505.065 371.051 505.638 371.462C506.211 371.873 508.285 375.283 508.285 378.042C508.35 382.771 510.351 387.105 514.611 391.44C522.681 399.637 528.943 401.607 535.269 397.982C538.561 396.09 541.26 395.351 541.26 395.351C541.26 395.351 543.951 399.543 544.113 400.976C545.381 412.174 558.96 416.868 562.575 417.341C563.404 417.443 565.017 417.01 566.654 416.57C568.844 415.983 571.079 415.383 571.549 416.03C572.471 417.3 556.12 450.313 553.861 454.49C532.364 493.897 490.532 518.014 439.34 520.536C406.094 522.191 365.231 510.842 329.79 490.193C307.131 476.873 287.055 460.559 265.558 437.703C261.813 433.763 257.488 429.27 255.939 427.694C254.39 426.197 250.71 421.074 247.87 416.345C243.092 408.464 240.381 405.626 240.381 408.306C240.381 409.488 243.48 416.739 247.03 423.911C248.451 426.748 249.354 428.719 249.032 428.403C248.709 428.088 247.676 433.763 246.708 441.013C243.544 464.263 238.315 487.198 233.022 501.463C230.117 509.187 224.547 514.955 222.868 516.531C216.671 522.284 207.394 524.87 194.547 526.447C178.279 528.417 154.329 524.004 136.06 515.649C131.218 513.443 118.759 507.059 117.92 506.349C117.87 506.288 117.584 504.02 117.185 500.856C117.072 499.964 116.95 499 116.823 497.995C114.499 478.528 111.271 403.577 111.271 368.9C111.271 354.556 111.142 351.403 110.367 351.403C108.753 351.403 108.108 353.295 107.398 360.072C105.784 375.52 106.107 456.146 107.85 473.09L108.237 476.952L106.042 475.455C102.685 473.09 89.9032 457.249 85.4489 449.919C81.678 443.653 79.4367 435.628 77.7599 429.624L77.7598 429.623C77.3698 428.227 77.0104 426.94 76.6694 425.81C67.3089 394.127 70.6012 358.575 83.5122 326.577C94.4866 299.308 107.979 284.176 127.732 276.846C130.96 275.664 133.801 274.403 134.123 274.087C135.35 272.669 127.474 273.378 123.149 275.033C109.076 280.314 94.3575 294.736 84.3515 313.179C70.2784 339.029 63.952 377.175 68.4063 409.725C69.4392 417.448 73.6353 434.157 74.7973 435.339C74.9002 435.465 75.4311 436.824 76.2341 438.881L76.2342 438.881L76.2344 438.882L76.2345 438.882L76.2347 438.883C78.4552 444.57 82.7549 455.582 85.8362 460.559C89.5804 466.785 100.878 480.341 105.59 484.518L108.56 487.119L109.012 493.503C109.851 505.719 110.174 506.822 114.692 510.921C125.99 521.403 148.261 531.176 168.402 534.643C177.763 536.22 198.098 535.668 205.844 533.619C210.822 532.289 218.549 528.308 223.472 525.772L223.473 525.772L223.475 525.771ZM424.041 459.613C386.534 455.594 341.216 433.761 308.422 400.029C294.607 385.764 276.661 358.023 269.56 342.655C268.075 339.502 266.978 338.005 265.687 337.611C264.331 337.138 265.493 336.665 271.045 335.562C294.478 330.675 317.266 318.774 335.665 301.83L338.376 299.386L339.151 301.672C340.894 306.795 347.607 311.996 352.578 311.996C354.579 311.996 361.293 308.292 365.36 304.903L368.136 302.618L370.395 305.376C372.461 307.898 372.848 308.056 376.722 308.056C381.176 308.056 386.534 305.613 389.504 302.145L391.117 300.332L395.701 304.036C398.154 306.164 404.997 310.814 410.871 314.518C419.651 320.035 428.947 326.419 437.791 333.04L439.211 334.143L437.855 336.35C436.435 338.714 433.79 343.206 433.79 350.063C433.79 357.787 440.368 371.664 452.961 381.194C462.855 388.682 479.881 403.409 479.235 424.936C479.157 427.536 476.782 433.999 473.619 439.831C471.553 443.535 465.808 449.052 460.579 452.284C451.67 457.722 435.983 460.874 424.041 459.613ZM79.8326 105.822C81.5756 106.294 82.7376 107.004 82.4794 107.319C81.6401 108.344 77.1858 107.871 76.153 106.61C74.5391 104.718 74.9264 103.378 77.1858 102.827C78.3478 102.59 80.0908 101.408 81.0591 100.226C82.0275 99.0437 82.8667 98.492 82.8667 98.886C82.8667 99.9106 79.6389 103.536 78.0251 104.324C76.9922 104.876 77.3149 105.112 79.8326 105.822ZM105.526 107.083C107.398 105.822 107.01 104.955 104.815 105.349C102.621 105.743 102.491 105.428 103.912 102.748C104.493 101.723 104.815 100.226 104.686 99.4377C104.493 98.4132 104.041 98.886 103.008 101.408C102.233 103.221 101.136 104.718 100.619 104.718C99.0055 104.718 98.8764 106.294 100.426 107.004C102.427 108.028 103.976 108.028 105.526 107.083ZM83.1895 64.0507C81.6401 64.3659 76.7985 66.7303 72.5379 69.3312C68.2127 71.8532 64.533 73.9811 64.2748 73.9023C57.6902 73.0354 66.857 59.6371 83.5122 45.9237C99.4574 32.7619 110.238 25.8264 120.244 22.2798C126.506 20.073 133.542 19.7578 135.544 21.5705C136.641 22.595 136.254 22.6738 131.477 22.7527C121.148 22.7527 109.205 29.2153 89.7741 45.0567C79.7035 53.2533 68.019 64.9964 68.019 66.8879C68.019 67.282 69.8911 66.4939 72.2151 65.2329C77.1858 62.4744 82.2857 61.0558 84.5451 61.6863C86.9337 62.4744 86.4172 63.499 83.1895 64.0507ZM108.172 70.8286C114.24 69.3312 114.499 69.2523 114.499 68.4642C114.499 68.0702 112.175 67.6761 109.27 67.5185L104.041 67.282L108.882 60.5829C111.529 56.8787 114.628 53.1745 115.725 52.3075C118.114 50.416 118.243 49.0762 116.306 48.2881L114.821 47.7364L116.435 47.0271C117.339 46.633 119.018 46.4754 120.18 46.7118C121.923 47.0271 122.31 46.8694 122.116 45.7661C121.923 44.6627 121.212 44.4262 118.049 44.5051C108.818 44.6627 104.88 47.6576 112.11 49.0762C114.111 49.4703 115.79 50.1008 115.79 50.4948C115.79 50.8101 115.467 51.1253 115.08 51.1253C113.853 51.1253 103.46 63.9719 102.169 67.1244C100.167 71.7744 101.265 72.4837 108.172 70.8286ZM150.779 40.2491C148.907 40.4068 148.455 40.8008 148.584 41.9042L148.604 42.0648C148.68 42.6747 148.722 43.013 148.595 43.0969C148.437 43.2015 148.018 42.9108 147.075 42.2579L146.905 42.1407C145.679 41.3525 145.55 40.9585 146.26 40.328C146.712 39.8551 147.938 39.1458 148.907 38.9093L150.714 38.3576L149.358 36.6237C148.648 35.5992 148.261 34.6534 148.455 34.3382C148.971 33.7077 155.298 34.5746 156.201 35.4416C156.589 35.8356 157.17 35.7568 157.557 35.2839C158.461 34.1805 159.687 35.0475 159.687 36.7814C159.687 37.7271 159.494 37.8059 158.913 37.0966C158.396 36.4661 157.944 36.4661 157.363 37.0178C156.847 37.5695 156.46 37.5695 156.137 36.939C155.943 36.5449 154.717 36.1509 153.425 36.1509C152.28 36.1509 151.716 36.1509 151.572 36.3971C151.431 36.6367 151.689 37.1095 152.199 38.0424C153.229 40.0066 153.168 40.0127 150.801 40.247L150.779 40.2491ZM140.966 19.2849C140.966 18.2603 140.192 16.4476 139.223 15.2654L137.416 13.0587L147.099 13.5315C152.457 13.8468 158.525 14.5561 160.656 15.2654C162.786 15.8959 165.239 16.3688 166.143 16.3688C167.498 16.3688 167.24 16.0536 164.723 14.3985C160.333 11.64 154.717 10.3002 143.936 9.35444C131.025 8.25106 124.505 9.74851 125.731 13.6892C125.925 14.4773 126.958 14.8714 128.507 14.8714C131.67 14.8714 136.835 17.1569 138.578 19.2849C140.45 21.5705 140.966 21.5705 140.966 19.2849ZM109.463 227.982C114.692 236.178 121.6 245.478 124.828 248.631C126.764 250.522 128.443 252.099 128.572 252.099C128.636 252.099 127.216 248.473 125.409 244.06C118.114 226.327 113.853 208.673 111.852 188.339C111.4 183.847 110.69 180.064 109.915 178.487C108.366 175.335 108.366 171.236 109.98 167.375C110.819 165.325 111.271 162.725 111.271 159.887V155.553L108.172 159.493C105.138 163.355 102.233 164.931 102.233 162.567C102.233 160.833 107.01 152.479 109.528 149.878C111.529 147.829 111.787 147.12 112.433 140.972C112.885 137.268 113.918 130.727 114.757 126.392C115.661 122.057 116.177 118.353 116.048 118.195C115.596 117.644 100.426 138.915 98.3599 145.701C97.9064 147.191 96.6815 149.799 95.7132 151.376L94.0347 154.007C94.0347 154.007 94.5561 157.691 95.1322 162.321C95.7142 166.999 95.9873 170.214 96.2305 173.079C96.5559 176.91 96.8278 180.112 97.7144 185.344C98.7472 191.807 99.7801 197.402 100.038 197.796C100.232 198.269 101.071 201.895 101.91 205.914C103.718 214.82 106.752 223.647 109.463 227.982ZM371.428 302.539L370.072 300.884C370.072 300.884 392.573 265.983 396.605 253.123C399.681 243.309 401.492 240.526 403.935 240.526C405.302 240.526 406.417 240.907 406.933 241.853C407.837 243.508 408.708 245.557 407.546 252.572C405.609 263.921 402.64 271.408 393.731 287.564C391.666 291.269 389.019 295.367 387.857 296.786C385.145 299.859 379.046 303.012 375.495 303.721C373.236 304.115 372.59 303.958 371.428 302.539Z" fill="#00160A"/>
<path d="M550.181 379.638C558.212 352.923 556.997 347.231 555.604 346.674C555.604 346.674 552.537 348.802 551.181 353.294C548.663 361.727 540.046 383.795 536.818 387.736C533.009 392.386 533.009 392.386 529.136 392.386C525.263 392.386 514.092 385.264 512.571 378.245C510.137 367.013 520.615 327.996 520.873 325.789L519.13 324.291C517.968 325.631 502.853 381.588 482.979 367.008C480.703 365.338 475.878 357.472 475.491 353.294C473.34 341.157 483.209 298.717 484.888 289.999C486.39 282.196 494.212 274.954 503.83 274.954C518.613 274.954 516.628 290.731 523.249 296.29C526.184 298.754 531.006 294.287 532.493 293.948C540.82 292.057 544.011 294.259 550.116 300.175C554.829 304.741 558.316 313.778 562.153 316.962C564.285 318.73 566.547 316.312 567.288 315.858C570.325 313.997 576.842 315.385 578.65 316.962C581.3 318.372 587.793 325.993 588.819 330.425C593.468 350.513 578.787 395.047 573.244 403.402C564.07 417.23 542.15 406.353 550.181 379.638Z" fill="white"/>
<path fill-rule="evenodd" clip-rule="evenodd" d="M179.053 306.437C196.742 320.071 214.98 328.977 235.767 331.42C252.164 333.312 274.272 330.711 290.153 324.406C303.516 319.126 321.591 304.498 333.663 292.124C357.096 268.165 371.88 230.74 378.335 191.019C379.239 185.423 380.617 171.357 380.553 157.407C380.553 141.172 374.7 96.8047 356.967 71.2229C320.394 18.4604 260.274 -5.30753 209.748 15.0007C191.522 22.3265 172.116 35.5994 157.462 52.9382C138.999 74.9271 125.378 104.876 119.955 135.455C114.274 167.769 121.664 206.387 134.51 238.07C144.775 263.29 161.688 292.96 179.053 306.437ZM351.416 211.195C339.279 255.724 307.647 288.983 267.881 299.071C261.813 300.569 257.617 301.12 249.096 301.278C243.092 301.514 237.089 301.436 235.862 301.278C208.039 297.18 186.865 284.648 167.369 260.847C158.848 250.365 155.233 244.69 149.939 233.499C141.611 215.766 137.157 197.639 135.802 175.808C131.154 101.014 174.986 38.6731 236.701 32.2104C260.909 29.6884 287.764 38.7519 308.164 56.406C315.717 62.9475 329.402 79.4982 333.663 87.2219C335.406 90.2956 352.319 120.481 355.289 137.82C359.098 160.36 357.613 188.575 351.416 211.195Z" fill="white"/>
<path fill-rule="evenodd" clip-rule="evenodd" d="M380.577 157.407C380.577 210.307 360.08 268.141 333.628 292.84C321.008 304.624 304.516 318.893 290.153 324.406C269.106 332.485 235.768 331.42 235.768 331.42C235.768 331.42 269.779 325.869 282.384 319.677C318.527 301.919 338.257 274.659 350.44 248.503C374.489 196.874 380.577 156.122 380.577 157.407Z" fill="#E7EAEE"/>
<path fill-rule="evenodd" clip-rule="evenodd" d="M236.508 291.821C219.271 289.141 202.164 281.654 188.349 270.541C180.151 264 167.756 248.631 161.753 237.676C153.167 221.913 147.486 205.047 144.71 186.92C142.709 173.759 142.774 153.504 144.775 141.761C146.841 129.781 149.487 120.639 154.2 109.053C159.687 95.655 165.497 85.8033 174.212 75.1636C189.06 57.0366 206.296 45.5299 226.824 40.013C233.474 38.2791 257.553 36.8605 258.392 38.2003C258.585 38.5943 259.877 39.6189 261.232 40.4859C262.588 41.4316 266.203 44.7418 269.173 47.9731C273.627 52.7019 275.628 55.6968 279.501 63.1052C282.148 68.1492 284.278 72.7204 284.278 73.1144C284.278 73.9814 286.344 75.5577 287.506 75.5577C289.12 75.5577 290.217 69.6467 290.54 59.2434C290.734 53.49 291.121 48.7612 291.379 48.7612C292.283 48.7612 302.225 55.4603 306.873 59.2434C315.975 66.6518 325.077 77.0551 331.791 87.9313C334.825 92.8177 335.277 94.0787 335.277 97.0736C335.277 99.8321 335.923 101.96 337.924 106.216C342.959 116.934 346.897 130.412 349.285 145.307C350.835 155.316 350.835 174.232 349.221 184.714C344.831 213.559 331.791 242.247 314.813 260.453C300.417 275.822 285.118 285.279 267.042 289.929C260.845 291.584 242.253 292.688 236.508 291.821ZM190.351 237.912C190.932 237.124 191.319 235.942 191.125 235.39C191.067 235.225 190.259 234.761 189.076 234.082L189.076 234.082C186.318 232.499 181.523 229.747 179.445 226.879C171.181 215.372 168.147 206.781 166.275 189.048C164.468 171.788 165.986 160.12 169.245 141.367C170.834 132.218 175.059 124.662 177.688 119.96C179.475 116.764 180.524 114.887 179.505 114.728C176.988 114.255 176.6 114.491 173.954 117.565C168.273 124.185 165.691 129.466 162.979 139.633C158.783 155.553 157.972 198.577 166.275 217.973C174.578 237.369 188.866 239.962 190.351 237.912ZM282.148 171.71C281.052 183.953 276.403 201.658 270.98 209.382C268.462 213.008 259.221 219.234 251.42 217.973C243.885 216.755 237.992 212.456 232.957 203.235C228.632 195.275 226.398 185.612 224.888 173.443C222.28 152.43 233.667 127.968 238.573 121.9C243.544 115.673 247.095 113.467 251.614 113.388C256.003 113.388 258.844 114.57 263.298 118.432C271.432 125.367 284.278 147.918 282.148 171.71ZM195.128 106.531C196.419 104.718 196.613 103.852 196.225 100.463C195.967 97.3101 195.451 96.049 194.095 94.7092C191.706 92.3448 188.737 92.3448 186.542 94.8668C184.993 96.6795 184.799 97.3101 184.993 101.645C185.186 106.295 185.315 106.61 187.446 108.029C190.286 109.92 193.062 109.368 195.128 106.531ZM235.41 57.9035C223.79 68.0704 218.755 72.2475 213.526 76.1882C209.394 79.3407 208.103 79.4195 208.103 76.5822C208.103 75.0848 209.007 73.4297 211.331 70.8289L214.559 67.2035L208.297 66.1789C201.261 65.0755 194.418 62.7111 192.933 60.8984C190.48 57.8247 192.61 57.1154 199.582 58.6917C202.681 59.3222 208.684 60.1103 212.945 60.2679L220.692 60.662L226.308 55.6968C238.638 44.8206 251.42 38.6732 257.553 40.5647C261.361 41.6681 260.909 42.9291 256.584 43.5596C251.614 44.2689 248.579 46.318 235.41 57.9035Z" fill="white"/>
<path d="M252.001 207.175C252.001 206.781 252.388 206.387 252.905 206.387C253.421 206.387 254.067 206.781 254.26 207.175C254.454 207.648 254.067 207.963 253.357 207.963C252.582 207.963 252.001 207.648 252.001 207.175Z" fill="white"/>
<path d="M255.874 206.466C255.874 205.599 257.488 204.811 259.295 204.811C260.716 204.89 260.716 204.89 259.489 205.993C258.069 207.333 255.874 207.569 255.874 206.466Z" fill="white"/>
<path d="M245.868 204.417C245.674 203.786 245.416 202.683 245.222 202.052C245.029 201.264 245.352 200.87 246.191 200.87C246.901 200.87 247.482 201.343 247.482 201.973C247.482 202.604 247.676 203.629 247.869 204.338C248.127 205.205 247.934 205.599 247.224 205.599C246.643 205.599 245.997 205.047 245.868 204.417Z" fill="white"/>
<path d="M249.289 202.446C248.967 200.082 249.677 199.294 252.001 199.294C252.711 199.294 253.292 200.082 253.55 201.422C254.066 203.707 253.227 204.811 250.968 204.811C249.935 204.811 249.483 204.259 249.289 202.446Z" fill="white"/>
<path d="M242.705 202.84C241.479 201.658 241.479 201.658 242.834 201.658C243.673 201.658 244.254 202.131 244.254 202.84C244.254 204.259 244.254 204.259 242.705 202.84Z" fill="white"/>
<path d="M255.681 202.762C254.842 201.737 255.229 198.663 256.262 198.19C258.134 197.324 258.973 197.718 259.361 199.767C259.619 200.949 259.748 201.974 259.619 202.052C259.102 202.762 256.068 203.235 255.681 202.762Z" fill="white"/>
<path d="M261.426 201.107C261.233 200.87 261.039 199.846 261.039 198.9C261.039 197.56 261.556 197.008 263.105 196.614C264.46 196.299 265.3 196.457 265.687 197.087C266.333 198.348 266.333 199.924 265.752 200.318C264.59 201.107 261.878 201.579 261.426 201.107Z" fill="white"/>
<path d="M239.735 198.663C239.735 197.718 240.316 196.93 241.156 196.693C242.834 196.141 242.769 196.063 243.092 198.112C243.221 199.294 242.899 199.767 241.543 199.924C240.123 200.161 239.735 199.846 239.735 198.663Z" fill="white"/>
<path d="M244.642 198.742C243.738 197.56 244.319 195.353 245.546 195.353C246.385 195.353 246.837 195.905 246.837 196.851C246.837 198.348 245.352 199.609 244.642 198.742Z" fill="white"/>
<path d="M248.515 196.378C247.999 194.88 249.096 193.777 251.226 193.777C252.195 193.777 252.647 194.25 252.647 195.275C252.647 196.141 252.066 196.93 251.226 197.245C249.096 197.875 248.967 197.875 248.515 196.378Z" fill="white"/>
<path d="M267.172 196.141C267.365 195.747 267.688 195.353 267.882 195.353C268.075 195.353 268.011 195.747 267.817 196.141C267.624 196.614 267.301 196.93 267.107 196.93C266.914 196.93 266.978 196.614 267.172 196.141Z" fill="white"/>
<path d="M254.325 194.802C253.808 193.225 254.454 192.437 256.52 192.043C257.682 191.886 258.198 192.201 258.327 193.304C258.779 195.905 255.099 197.324 254.325 194.802Z" fill="white"/>
<path d="M238.832 193.462C238.251 190.861 238.38 190.625 240.058 190.625C240.962 190.625 241.672 190.94 241.672 191.334C241.672 191.728 241.866 192.595 242.06 193.225C242.253 194.013 241.866 194.486 240.769 194.723C239.542 195.038 239.09 194.723 238.832 193.462Z" fill="white"/>
<path d="M260.394 192.595C260.394 191.176 260.845 190.546 262.072 190.151C263.88 189.6 264.912 190.703 264.912 193.225C264.912 194.25 264.396 194.565 262.653 194.565C260.652 194.565 260.394 194.329 260.394 192.595Z" fill="white"/>
<path d="M236.896 192.595C236.702 191.964 236.831 191.413 237.154 191.413C237.541 191.413 237.799 191.964 237.799 192.595C237.799 193.225 237.67 193.777 237.541 193.777C237.412 193.777 237.154 193.225 236.896 192.595Z" fill="white"/>
<path d="M243.415 193.225C242.512 192.201 243.028 189.994 244.19 189.6C244.9 189.363 245.61 189.442 245.804 189.679C246.579 190.546 246.127 192.831 245.158 193.304C243.932 193.856 243.932 193.856 243.415 193.225Z" fill="white"/>
<path d="M266.461 192.674C265.751 190.388 266.526 188.654 268.334 188.418C269.689 188.181 270.077 188.497 270.077 189.758C270.077 192.358 269.366 193.777 268.075 193.777C267.365 193.777 266.655 193.304 266.461 192.674Z" fill="white"/>
<path d="M247.934 191.649C247.159 190.782 247.417 189.206 248.515 188.733C249.741 188.181 252.324 189.758 251.613 190.625C250.71 191.57 248.386 192.28 247.934 191.649Z" fill="white"/>
<path d="M253.55 189.679C252.969 188.575 255.035 186.684 256.713 186.684C257.488 186.684 257.811 187.157 257.682 188.024C257.424 189.6 254.131 190.861 253.55 189.679Z" fill="white"/>
<path d="M235.862 189.127C235.862 188.733 235.669 187.866 235.475 187.157C235.281 186.447 235.346 185.896 235.733 185.896C236.572 185.896 237.218 188.891 236.443 189.521C236.12 189.758 235.862 189.6 235.862 189.127Z" fill="white"/>
<path d="M237.605 187.314C237.218 185.58 237.992 184.319 239.477 184.319C240.316 184.319 241.155 187.393 240.639 188.418C239.929 189.757 237.928 188.969 237.605 187.314Z" fill="white"/>
<path d="M242.124 187.709C241.156 186.526 241.737 183.689 243.028 183.295C243.996 182.98 244.513 183.374 245.029 184.792C245.416 185.817 245.61 186.842 245.481 186.999C244.835 187.709 242.511 188.26 242.124 187.709Z" fill="white"/>
<path d="M259.554 187.709C258.715 186.684 259.102 186.053 261.039 185.186C262.653 184.556 263.105 184.635 263.428 185.581C264.009 187.472 260.781 189.285 259.554 187.709Z" fill="white"/>
<path d="M265.235 185.896C264.589 184.635 265.493 183.531 267.171 183.531C269.173 183.531 269.754 185.58 267.946 186.211C266.009 186.841 265.687 186.763 265.235 185.896Z" fill="white"/>
<path d="M270.722 184.004C270.722 182.822 271.884 181.561 272.4 182.191C272.852 182.743 271.948 185.107 271.303 185.107C270.98 185.107 270.722 184.635 270.722 184.004Z" fill="white"/>
<path d="M235.023 182.98C234.765 182.743 234.571 181.719 234.636 180.852C234.636 179.354 234.7 179.354 235.281 181.088C235.927 182.98 235.798 183.925 235.023 182.98Z" fill="white"/>
<path d="M236.249 181.797C235.668 179.039 235.733 178.802 237.411 178.802C239.283 178.802 240.445 181.719 239.025 182.822C237.54 183.925 236.701 183.61 236.249 181.797Z" fill="white"/>
<path d="M258.457 183.374C258.457 183.137 258.78 181.876 259.167 180.458C260.071 177.305 262.072 177.147 262.524 180.221C262.718 181.403 262.782 182.428 262.718 182.507C262.395 182.98 258.457 183.689 258.457 183.374Z" fill="white"/>
<path d="M240.833 181.403C240.575 181.167 240.381 180.221 240.381 179.354C240.381 178.093 240.575 178.014 241.349 178.802C241.866 179.354 242.318 180.3 242.318 180.852C242.318 182.034 241.543 182.349 240.833 181.403Z" fill="white"/>
<path d="M264.072 179.827C263.685 177.384 264.524 176.281 266.526 176.596C267.494 176.753 267.817 177.463 267.817 179.197C267.817 181.167 267.558 181.64 266.138 181.798C264.718 182.034 264.395 181.64 264.072 179.827Z" fill="white"/>
<path d="M270.399 180.142C269.56 176.99 269.818 176.044 271.561 175.808C273.11 175.571 273.304 175.808 273.304 177.857C273.304 179.591 272.917 180.3 271.948 180.615C271.238 180.852 270.528 180.615 270.399 180.142Z" fill="white"/>
<path d="M234.055 175.65C234.055 174.153 234.184 173.522 234.377 174.31C234.507 175.02 234.507 176.281 234.377 177.069C234.184 177.778 234.055 177.148 234.055 175.65Z" fill="white"/>
<path d="M235.668 176.675C234.829 175.729 235.216 172.655 236.249 172.182C237.734 171.473 238.444 172.34 238.444 174.941C238.444 176.596 238.121 177.226 237.282 177.226C236.637 177.226 235.862 176.99 235.668 176.675Z" fill="white"/>
<path d="M239.542 174.547C239.284 173.364 239.155 172.103 239.413 171.867C240.059 171.079 240.446 172.34 240.252 174.626L240.059 176.832L239.542 174.547Z" fill="white"/>
<path d="M260.394 173.995C260.394 173.128 260.716 172.655 261.039 172.891C261.426 173.128 261.685 173.916 261.685 174.547C261.685 175.177 261.426 175.65 261.039 175.65C260.716 175.65 260.394 174.941 260.394 173.995Z" fill="white"/>
<path d="M263.298 175.02C262.394 173.837 263.104 171.709 264.589 171.236C266.461 170.685 266.526 170.685 267.107 172.97C267.494 174.389 267.236 174.704 265.557 175.02C264.524 175.256 263.491 175.177 263.298 175.02Z" fill="white"/>
<path d="M269.238 173.522C268.528 172.734 268.721 170.133 269.431 170.133C269.819 170.133 270.077 169.818 270.077 169.345C270.077 168.951 269.69 168.557 269.173 168.557C268.076 168.557 267.172 164.695 268.076 163.592C269.238 162.173 270.529 163.67 271.303 167.532C271.755 169.581 272.207 171.946 272.401 172.734C272.659 173.758 272.401 174.074 271.174 174.074C270.335 174.074 269.431 173.837 269.238 173.522Z" fill="white"/>
<path d="M272.723 169.345C272.271 166.98 271.109 162.252 270.27 158.784C268.979 153.74 268.85 152.479 269.56 151.927C270.012 151.533 270.593 151.218 270.786 151.218C271.496 151.218 274.078 167.374 273.82 170.527L273.627 173.679L272.723 169.345Z" fill="white"/>
<path d="M233.409 168.951C233.409 167.69 233.538 167.217 233.732 168.005C233.861 168.714 233.861 169.818 233.732 170.37C233.538 170.842 233.409 170.291 233.409 168.951Z" fill="white"/>
<path d="M234.7 168.793C234.959 166.035 236.831 165.404 237.347 167.926C237.799 169.975 237.928 169.739 235.991 170.527C234.636 171 234.507 170.842 234.7 168.793Z" fill="white"/>
<path d="M261.942 168.084C261.426 165.798 262.523 164.458 264.589 164.774C266.138 165.01 266.719 168.399 265.428 169.424C263.814 170.685 262.329 170.133 261.942 168.084Z" fill="white"/>
<path d="M238.444 167.453C238.444 166.114 238.767 165.404 239.477 165.404C240.123 165.404 240.381 165.956 240.252 167.138C239.929 169.66 238.444 169.897 238.444 167.453Z" fill="white"/>
<path d="M232.699 164.143C232.699 163.276 232.893 163.04 233.087 163.67C233.28 164.222 233.216 164.931 233.022 165.168C232.828 165.483 232.635 165.01 232.699 164.143Z" fill="white"/>
<path d="M233.926 163.907C233.926 162.725 234.313 162.252 235.281 162.252C236.185 162.252 236.508 162.646 236.379 163.592C236.056 165.641 233.926 165.877 233.926 163.907Z" fill="white"/>
<path d="M237.476 163.197C237.024 161.779 237.024 161.779 238.961 161.148C240.123 160.675 240.381 160.912 240.381 162.094C240.381 163.986 238.057 164.931 237.476 163.197Z" fill="white"/>
<path d="M260.845 162.094C260.394 160.124 261.233 159.099 263.492 159.099C264.59 159.099 264.912 159.572 264.912 161.069C264.912 162.252 264.525 163.04 264.009 163.04C263.492 163.04 262.653 163.276 262.137 163.513C261.556 163.749 261.104 163.276 260.845 162.094Z" fill="white"/>
<path d="M266.462 160.281C265.945 158.705 266.72 157.523 268.205 157.523C269.108 157.523 269.431 158.075 269.431 159.493C269.431 160.912 269.108 161.464 268.14 161.464C267.43 161.464 266.655 160.912 266.462 160.281Z" fill="white"/>
<path d="M233.28 159.178C233.28 157.523 234.765 155.632 235.411 156.499C235.669 156.735 235.862 157.838 235.862 158.863C235.862 160.124 235.475 160.676 234.571 160.676C233.732 160.676 233.28 160.124 233.28 159.178Z" fill="white"/>
<path d="M236.83 158.232C236.314 156.262 236.895 155.395 239.09 155.001C241.091 154.686 241.737 157.286 239.994 158.863C238.315 160.36 237.282 160.124 236.83 158.232Z" fill="white"/>
<path d="M260.199 157.76C259.747 157.287 259.554 154.371 259.941 154.371C260.006 154.371 260.974 154.055 262.136 153.661C264.073 152.952 264.202 153.031 264.137 155.159C264.073 156.735 263.685 157.523 262.717 157.838C260.974 158.39 260.716 158.39 260.199 157.76Z" fill="white"/>
<path d="M257.812 155.947C257.812 155.395 258.005 155.159 258.263 155.395C258.457 155.71 258.457 156.183 258.263 156.498C258.005 156.735 257.812 156.498 257.812 155.947Z" fill="white"/>
<path d="M265.041 154.686C265.235 153.346 267.236 151.375 267.688 152.006C267.882 152.242 268.204 153.188 268.398 154.213C268.85 155.789 268.656 155.947 266.849 155.947C265.299 155.947 264.848 155.631 265.041 154.686Z" fill="white"/>
<path d="M233.926 154.607C233.926 154.213 234.249 153.425 234.571 152.794C235.088 151.848 235.217 151.927 235.217 153.425C235.217 154.37 234.959 155.159 234.571 155.159C234.249 155.159 233.926 154.922 233.926 154.607Z" fill="white"/>
<path d="M235.862 152.873C235.862 150.666 237.218 149.957 238.251 151.612C238.896 152.794 238.896 153.188 238.251 153.74C236.895 154.764 235.862 154.449 235.862 152.873Z" fill="white"/>
<path d="M255.487 151.848C254.325 150.272 254.325 150.193 255.423 150.666C256.068 150.981 256.907 151.218 257.23 151.218C257.553 151.218 257.811 151.769 257.811 152.4C257.811 154.055 256.907 153.897 255.487 151.848Z" fill="white"/>
<path d="M241.608 151.769C238.832 149.169 238.445 143.336 241.027 143.336C242.77 143.336 244.384 146.647 244.126 149.72C243.932 152.558 243.157 153.188 241.608 151.769Z" fill="white"/>
<path d="M259.295 152.243C259.554 152.006 259.941 152.006 260.199 152.243C260.393 152.558 260.199 152.794 259.747 152.794C259.295 152.794 259.102 152.558 259.295 152.243Z" fill="white"/>
<path d="M269.044 149.169C269.237 148.46 269.431 147.75 269.431 147.593C269.431 147.435 269.754 147.277 270.077 147.277C270.464 147.277 270.722 147.987 270.722 148.854C270.722 149.799 270.27 150.43 269.689 150.43C268.979 150.43 268.786 150.036 269.044 149.169Z" fill="white"/>
<path d="M235.217 148.933C235.217 147.12 236.572 144.125 237.347 144.125C238.703 144.125 237.734 149.169 236.314 149.484C235.733 149.642 235.217 149.405 235.217 148.933Z" fill="white"/>
<path d="M249.741 148.065L247.805 147.514L249.548 146.962C251.355 146.332 252.646 146.804 252.646 148.144C252.646 148.932 252.582 148.932 249.741 148.065Z" fill="white"/>
<path d="M247.482 144.282C247.482 141.051 248.967 140.578 250.323 143.415C251.227 145.307 251.291 145.701 250.452 145.701C249.936 145.701 249.096 145.937 248.515 146.174C247.741 146.568 247.482 146.095 247.482 144.282Z" fill="white"/>
<path d="M258.715 145.386C255.81 143.809 253.938 139.632 253.938 134.667C253.938 131.12 254.196 130.253 255.939 128.283C257.036 127.022 258.134 125.998 258.456 125.998C259.877 125.998 265.106 132.066 266.849 135.849L268.85 140.184L266.719 142.942C264.266 146.095 261.555 146.962 258.715 145.386Z" fill="white"/>
<path d="M245.223 143.336C245.029 142.942 245.158 142.548 245.481 142.548C245.868 142.548 246.191 142.942 246.191 143.336C246.191 143.809 246.062 144.125 245.933 144.125C245.739 144.125 245.416 143.809 245.223 143.336Z" fill="white"/>
<path d="M236.766 142.076C236.96 141.366 237.154 140.657 237.154 140.499C237.154 140.342 237.735 140.184 238.445 140.184C240.059 140.184 240.123 141.445 238.509 142.548C236.766 143.652 236.314 143.573 236.766 142.076Z" fill="white"/>
<path d="M241.866 141.13C240.381 140.894 239.929 139.869 240.897 139.16C241.156 138.923 242.318 138.529 243.48 138.214C245.223 137.741 245.545 137.899 245.545 139.239C245.545 140.894 244.19 141.603 241.866 141.13Z" fill="white"/>
<path d="M246.837 138.45C246.837 137.504 246.901 136.953 247.031 137.11C247.095 137.268 247.612 138.056 248.063 138.844C248.838 139.947 248.774 140.184 247.87 140.184C247.224 140.184 246.837 139.553 246.837 138.45Z" fill="white"/>
<path d="M237.799 137.899C237.799 137.426 238.122 136.874 238.444 136.638C238.832 136.401 239.09 136.716 239.09 137.347C239.09 138.056 238.832 138.608 238.444 138.608C238.122 138.608 237.799 138.293 237.799 137.899Z" fill="white"/>
<path d="M240.188 136.716C239.671 135.14 244.255 133.406 245.03 134.904C245.611 136.165 245.03 136.716 242.576 137.347C241.092 137.741 240.446 137.583 240.188 136.716Z" fill="white"/>
<path d="M246.256 134.194C246.256 133.327 246.449 133.091 246.643 133.721C246.837 134.273 246.772 134.982 246.579 135.219C246.385 135.534 246.191 135.061 246.256 134.194Z" fill="white"/>
<path d="M240.769 132.933C241.543 131.2 243.803 128.362 244.384 128.362C245.029 128.362 245.094 132.067 244.448 132.539C244.125 132.697 243.093 133.091 242.124 133.406C240.704 133.8 240.381 133.722 240.769 132.933Z" fill="white"/>
<path d="M245.933 131.121C245.223 128.756 245.546 127.732 247.095 127.417C248.709 127.023 248.709 127.023 247.676 129.466C246.385 132.618 246.449 132.618 245.933 131.121Z" fill="white"/>
<path d="M245.546 126.392C245.546 126.234 246.837 125.131 248.451 124.028C250.388 122.609 251.743 122.136 252.712 122.451C253.874 122.924 253.551 123.239 250.71 124.894C247.547 126.628 245.546 127.259 245.546 126.392Z" fill="white"/>
<path d="M281.373 56.5637C279.63 53.49 275.951 48.5248 273.304 45.5299C270.657 42.535 268.914 40.0918 269.431 40.0918C270.851 40.0918 281.696 43.7172 284.407 45.1358C286.667 46.318 286.731 46.4757 286.15 48.9189C285.828 50.3375 285.569 53.8841 285.569 56.8002C285.569 59.7951 285.376 62.1594 285.117 62.1594C284.795 62.1594 283.181 59.6374 281.373 56.5637Z" fill="white"/>
<path d="M150.004 295.288C147.357 293.633 146.776 292.687 143.419 284.57C138.578 273.063 138.448 270.383 143.032 276.925C144.839 279.526 149.035 284.885 152.328 288.825C157.944 295.446 158.202 295.919 156.33 295.603C154.975 295.367 154.458 295.525 154.781 296.155C155.556 297.574 153.102 297.18 150.004 295.288Z" fill="white"/>
<path fill-rule="evenodd" clip-rule="evenodd" d="M258.191 438.879C257.655 437.325 258.253 435.536 259.525 434.881L260.916 434.161C274.439 427.097 282.2 422.854 287.474 416.116C292.748 409.378 293.379 399.482 294.37 393.46C294.642 391.807 297.707 394.709 299.06 395.041C300.414 395.373 301.291 396.982 301.019 398.635C299.828 405.875 296.62 412.778 291.455 419.33C286.308 425.861 276.342 432.861 261.465 440.507C260.193 441.162 258.727 440.432 258.191 438.879Z" fill="#00160A"/>
<path fill-rule="evenodd" clip-rule="evenodd" d="M319.341 124.414C320.527 123.552 322.061 124.027 322.768 125.476C329.839 139.979 333.627 156.557 333.627 173.806C333.627 226.061 298.929 268.423 256.127 268.423C244.754 268.423 233.723 265.428 223.621 259.722C222.368 259.014 217.634 253.378 222.402 255.67C227.169 257.962 245.616 263.108 256.26 263.108C296.301 263.108 324.627 222.69 324.627 173.806C324.627 157.664 319.341 143.336 318.471 128.598C318.371 126.89 318.154 125.277 319.341 124.414Z" fill="#00160A"/>
<path fill-rule="evenodd" clip-rule="evenodd" d="M71.7471 355.416C72.6308 354.121 74.2071 351.504 75.268 352.583C79.6202 357.009 84.2645 362.136 89.2324 363.126C94.402 364.156 100.535 364.156 107.623 363.108C108.994 362.906 110.24 364.098 110.406 365.771C110.571 367.445 109.595 368.966 108.224 369.168C100.697 370.281 94.1004 370.281 88.4272 369.151C82.5522 367.98 77.0886 364.82 72.068 359.715C71.0071 358.636 70.8634 356.712 71.7471 355.416Z" fill="#00160A"/>
<path d="M124.828 248.631C121.6 245.478 114.693 236.178 109.464 227.982C106.753 223.647 103.718 214.82 101.911 205.914C101.072 201.895 100.232 198.269 100.039 197.796C99.7806 197.402 98.7477 191.806 97.7148 185.344C96.1655 176.201 96.4932 173.256 95.1326 162.321C94.5565 157.691 94.0352 154.006 94.0352 154.006L95.7136 151.375C96.6819 149.799 97.9068 147.191 98.3603 145.701C100.426 138.915 115.597 117.643 116.048 118.195C116.178 118.353 115.661 122.057 114.757 126.392C113.918 130.726 112.885 137.268 112.433 140.972C111.788 147.119 111.53 147.829 109.528 149.878C107.011 152.479 102.234 160.833 102.234 162.567C102.234 164.931 105.139 163.355 108.173 159.493L111.271 155.552V159.887C111.271 162.724 110.819 165.325 109.98 167.374C108.366 171.236 108.366 175.335 109.916 178.487C110.69 180.063 111.4 183.846 111.852 188.339C113.854 208.672 118.114 226.327 125.409 244.06C127.216 248.473 128.637 252.098 128.572 252.098C128.443 252.098 126.765 250.522 124.828 248.631Z" fill="white"/>
<path fill-rule="evenodd" clip-rule="evenodd" d="M393.441 297.258L398.089 299.78C399.053 300.324 409.685 306.56 422.456 314.052C443.047 326.131 469.199 341.473 469.358 341.473C469.616 341.473 470.828 338.053 471.101 334.064C471.747 325.474 474.135 313.809 476.911 305.691C478.202 302.066 479.235 297.535 479.235 297.141C479.235 296.961 478.186 296.444 476.468 295.598C474.422 294.591 471.429 293.117 468.132 291.19C451.864 281.654 420.038 262.187 416.1 259.271C412.227 256.512 411.452 256.276 411.452 258.088C411.452 260.453 407.514 271.408 404.48 277.319C402.866 280.55 399.703 286.382 397.444 290.244L393.441 297.258ZM468.261 327.286C470.112 328.596 466.905 330.518 466.13 330.833C461.569 331.306 456.199 330.258 451.799 327.129C449.499 325.137 431.384 312.851 419.368 304.7C413.875 300.975 409.656 298.113 408.806 297.495C406.094 295.525 403.512 293.397 403.06 292.766C401.704 290.638 402.996 289.692 406.804 290.086C409.094 290.323 464.262 324.457 468.261 327.286Z" fill="white"/>
<path d="M347.09 304.352C345.412 303.642 343.605 302.066 342.443 300.253L340.506 297.337L347.349 289.062C357.871 276.452 365.618 262.671 372.59 247.302C374.914 242.179 381.821 221.519 382.66 219.234C383.951 215.923 384.92 214.662 387.696 212.771C390.988 210.406 394.732 209.618 396.346 210.958C399.445 213.48 399.445 221.44 396.346 235.154C392.925 250.207 388.341 261.004 378.852 276.531C377.367 278.895 374.591 283.545 372.59 286.776C367.232 295.446 363.746 299.623 359.033 302.854C354.385 306.007 351.674 306.401 347.09 304.352Z" fill="white"/>
<path d="M371.428 302.539L370.072 300.884C370.072 300.884 392.573 265.983 396.604 253.123C399.681 243.309 401.492 240.526 403.935 240.526C405.301 240.526 406.417 240.907 406.933 241.853C407.837 243.508 408.708 245.557 407.546 252.571C405.609 263.921 402.64 271.408 393.731 287.564C391.665 291.269 389.019 295.367 387.857 296.786C385.145 299.859 379.045 303.012 375.495 303.721C373.235 304.115 372.59 303.958 371.428 302.539Z" fill="white"/>
<path fill-rule="evenodd" clip-rule="evenodd" d="M409.223 266.044C410.525 262.408 411.453 259.236 411.453 258.088C411.453 256.276 412.227 256.512 416.1 259.271C420.038 262.187 451.864 281.654 468.132 291.19C474.2 294.736 479.235 296.747 479.235 297.141C479.235 297.535 407.843 269.899 409.223 266.044Z" fill="#E7EAEE"/>
<path fill-rule="evenodd" clip-rule="evenodd" d="M188.349 270.541C180.151 263.999 167.756 248.631 161.753 237.676C153.167 221.913 147.486 205.047 144.71 186.92C142.709 173.758 142.774 153.504 144.775 141.76C146.841 129.781 149.487 120.639 154.2 109.053C159.687 95.6548 165.497 85.8032 174.212 75.1634C182.758 64.7297 144.775 107.877 154.2 185.078C161.753 249.772 194.213 275.257 188.349 270.541Z" fill="#E7EAEE"/>
</svg>
